<svg width="768" height="128" viewBox="0 0 768 128" fill="none" xmlns="http://www.w3.org/2000/svg">
<rect x="0.5" y="0.5" width="767" height="127" rx="4.5" stroke="#9747FF" stroke-dasharray="10 5"/>
<path d="M544 34.17C541.87 34.17 540.13 32.44 540.13 30.3C540.13 28.16 541.87 26.44 544 26.44C546.13 26.44 547.87 28.17 547.87 30.31C547.87 32.45 546.13 34.17 544 34.17ZM544 27.94C542.7 27.94 541.63 29 541.63 30.31C541.63 31.62 542.69 32.68 544 32.68C545.31 32.68 546.37 31.62 546.37 30.31C546.37 29 545.3 27.94 544 27.94Z" fill="#292D32"/>
<path d="M544 42.76C542.52 42.76 541.03 42.2 539.87 41.09C536.92 38.25 533.66 33.72 534.89 28.33C536 23.44 540.27 21.25 544 21.25C544 21.25 544 21.25 544.01 21.25C547.74 21.25 552.01 23.44 553.12 28.34C554.34 33.73 551.08 38.25 548.13 41.09C546.97 42.2 545.48 42.76 544 42.76ZM544 22.75C541.09 22.75 537.35 24.3 536.36 28.66C535.28 33.37 538.24 37.43 540.92 40C542.65 41.67 545.36 41.67 547.09 40C549.76 37.43 552.72 33.37 551.66 28.66C550.66 24.3 546.91 22.75 544 22.75Z" fill="#292D32"/>
<path d="M682 42.75H665C662.93 42.75 661.25 41.07 661.25 39V22C661.25 21.59 661.59 21.25 662 21.25C662.41 21.25 662.75 21.59 662.75 22V39C662.75 40.24 663.76 41.25 665 41.25H682C682.41 41.25 682.75 41.59 682.75 42C682.75 42.41 682.41 42.75 682 42.75Z" fill="#292D32"/>
<path d="M665 37.75C664.83 37.75 664.65 37.69 664.51 37.57C664.2 37.3 664.16 36.83 664.43 36.51L669.02 31.15C669.52 30.57 670.24 30.22 671 30.19C671.76 30.17 672.51 30.45 673.05 30.99L674 31.94C674.25 32.19 674.58 32.31 674.93 32.31C675.28 32.3 675.6 32.14 675.83 31.87L680.42 26.51C680.69 26.2 681.16 26.16 681.48 26.43C681.79 26.7 681.83 27.17 681.56 27.49L676.97 32.85C676.47 33.43 675.75 33.78 674.99 33.81C674.23 33.83 673.48 33.55 672.94 33.01L672 32.06C671.75 31.81 671.42 31.68 671.07 31.69C670.72 31.7 670.4 31.86 670.17 32.13L665.58 37.49C665.42 37.66 665.21 37.75 665 37.75Z" fill="#292D32"/>
<path d="M746 42.75H726C725.59 42.75 725.25 42.41 725.25 42C725.25 41.59 725.59 41.25 726 41.25H746C746.41 41.25 746.75 41.59 746.75 42C746.75 42.41 746.41 42.75 746 42.75Z" fill="#292D32"/>
<path d="M738.25 42.75H733.75C733.34 42.75 733 42.41 733 42V24C733 22.28 733.95 21.25 735.55 21.25H736.45C738.05 21.25 739 22.28 739 24V42C739 42.41 738.66 42.75 738.25 42.75ZM734.5 41.25H737.5V24C737.5 22.85 736.96 22.75 736.45 22.75H735.55C735.04 22.75 734.5 22.85 734.5 24V41.25Z" fill="#292D32"/>
<path d="M731 42.75H727C726.59 42.75 726.25 42.41 726.25 42V30C726.25 28.28 727.13 27.25 728.6 27.25H729.4C730.87 27.25 731.75 28.28 731.75 30V42C731.75 42.41 731.41 42.75 731 42.75ZM727.75 41.25H730.25V30C730.25 28.75 729.7 28.75 729.4 28.75H728.6C728.3 28.75 727.75 28.75 727.75 30V41.25Z" fill="#292D32"/>
<path d="M745 42.75H741C740.59 42.75 740.25 42.41 740.25 42V35C740.25 33.28 741.13 32.25 742.6 32.25H743.4C744.87 32.25 745.75 33.28 745.75 35V42C745.75 42.41 745.41 42.75 745 42.75ZM741.75 41.25H744.25V35C744.25 33.75 743.7 33.75 743.4 33.75H742.6C742.3 33.75 741.75 33.75 741.75 35V41.25Z" fill="#292D32"/>
<path d="M224 35.75C221.93 35.75 220.25 34.07 220.25 32C220.25 29.93 221.93 28.25 224 28.25C226.07 28.25 227.75 29.93 227.75 32C227.75 34.07 226.07 35.75 224 35.75ZM224 29.75C222.76 29.75 221.75 30.76 221.75 32C221.75 33.24 222.76 34.25 224 34.25C225.24 34.25 226.25 33.24 226.25 32C226.25 30.76 225.24 29.75 224 29.75Z" fill="#292D32"/>
<path d="M227.21 42.19C227 42.19 226.79 42.16 226.58 42.11C225.96 41.94 225.44 41.55 225.11 41L224.99 40.8C224.4 39.78 223.59 39.78 223 40.8L222.89 40.99C222.56 41.55 222.04 41.95 221.42 42.11C220.79 42.28 220.14 42.19 219.59 41.86L217.87 40.87C217.26 40.52 216.82 39.95 216.63 39.26C216.45 38.57 216.54 37.86 216.89 37.25C217.18 36.74 217.26 36.28 217.09 35.99C216.92 35.7 216.49 35.53 215.9 35.53C214.44 35.53 213.25 34.34 213.25 32.88V31.12C213.25 29.66 214.44 28.47 215.9 28.47C216.49 28.47 216.92 28.3 217.09 28.01C217.26 27.72 217.19 27.26 216.89 26.75C216.54 26.14 216.45 25.42 216.63 24.74C216.81 24.05 217.25 23.48 217.87 23.13L219.6 22.14C220.73 21.47 222.22 21.86 222.9 23.01L223.02 23.21C223.61 24.23 224.42 24.23 225.01 23.21L225.12 23.02C225.8 21.86 227.29 21.47 228.43 22.15L230.15 23.14C230.76 23.49 231.2 24.06 231.39 24.75C231.57 25.44 231.48 26.15 231.13 26.76C230.84 27.27 230.76 27.73 230.93 28.02C231.1 28.31 231.53 28.48 232.12 28.48C233.58 28.48 234.77 29.67 234.77 31.13V32.89C234.77 34.35 233.58 35.54 232.12 35.54C231.53 35.54 231.1 35.71 230.93 36C230.76 36.29 230.83 36.75 231.13 37.26C231.48 37.87 231.58 38.59 231.39 39.27C231.21 39.96 230.77 40.53 230.15 40.88L228.42 41.87C228.04 42.08 227.63 42.19 227.21 42.19ZM224 38.49C224.89 38.49 225.72 39.05 226.29 40.04L226.4 40.23C226.52 40.44 226.72 40.59 226.96 40.65C227.2 40.71 227.44 40.68 227.64 40.56L229.37 39.56C229.63 39.41 229.83 39.16 229.91 38.86C229.99 38.56 229.95 38.25 229.8 37.99C229.23 37.01 229.16 36 229.6 35.23C230.04 34.46 230.95 34.02 232.09 34.02C232.73 34.02 233.24 33.51 233.24 32.87V31.11C233.24 30.48 232.73 29.96 232.09 29.96C230.95 29.96 230.04 29.52 229.6 28.75C229.16 27.98 229.23 26.97 229.8 25.99C229.95 25.73 229.99 25.42 229.91 25.12C229.83 24.82 229.64 24.58 229.38 24.42L227.65 23.43C227.22 23.17 226.65 23.32 226.39 23.76L226.28 23.95C225.71 24.94 224.88 25.5 223.99 25.5C223.1 25.5 222.27 24.94 221.7 23.95L221.59 23.75C221.34 23.33 220.78 23.18 220.35 23.43L218.62 24.43C218.36 24.58 218.16 24.83 218.08 25.13C218 25.43 218.04 25.74 218.19 26C218.76 26.98 218.83 27.99 218.39 28.76C217.95 29.53 217.04 29.97 215.9 29.97C215.26 29.97 214.75 30.48 214.75 31.12V32.88C214.75 33.51 215.26 34.03 215.9 34.03C217.04 34.03 217.95 34.47 218.39 35.24C218.83 36.01 218.76 37.02 218.19 38C218.04 38.26 218 38.57 218.08 38.87C218.16 39.17 218.35 39.41 218.61 39.57L220.34 40.56C220.55 40.69 220.8 40.72 221.03 40.66C221.27 40.6 221.47 40.44 221.6 40.23L221.71 40.04C222.28 39.06 223.11 38.49 224 38.49Z" fill="#292D32"/>
<path d="M608.02 40.53C605.69 40.53 603.36 40.16 601.15 39.42C600.31 39.13 599.67 38.54 599.39 37.77C599.1 37 599.2 36.15 599.66 35.39L600.81 33.48C601.05 33.08 601.27 32.28 601.27 31.81V28.92C601.27 25.2 604.3 22.17 608.02 22.17C611.74 22.17 614.77 25.2 614.77 28.92V31.81C614.77 32.27 614.99 33.08 615.23 33.49L616.37 35.39C616.8 36.11 616.88 36.98 616.59 37.77C616.3 38.56 615.67 39.16 614.88 39.42C612.68 40.16 610.35 40.53 608.02 40.53ZM608.02 23.67C605.13 23.67 602.77 26.02 602.77 28.92V31.81C602.77 32.54 602.47 33.62 602.1 34.25L600.95 36.16C600.73 36.53 600.67 36.92 600.8 37.25C600.92 37.59 601.22 37.85 601.63 37.99C605.81 39.39 610.24 39.39 614.42 37.99C614.78 37.87 615.06 37.6 615.19 37.24C615.32 36.88 615.29 36.49 615.09 36.16L613.94 34.25C613.56 33.6 613.27 32.53 613.27 31.8V28.92C613.27 26.02 610.92 23.67 608.02 23.67Z" fill="#292D32"/>
<path d="M609.88 23.94C609.81 23.94 609.74 23.93 609.67 23.91C609.38 23.83 609.1 23.77 608.83 23.73C607.98 23.62 607.16 23.68 606.39 23.91C606.11 24 605.81 23.91 605.62 23.7C605.43 23.49 605.37 23.19 605.48 22.92C605.89 21.87 606.89 21.18 608.03 21.18C609.17 21.18 610.17 21.86 610.58 22.92C610.68 23.19 610.63 23.49 610.44 23.7C610.29 23.86 610.08 23.94 609.88 23.94Z" fill="#292D32"/>
<path d="M608.02 42.81C607.03 42.81 606.07 42.41 605.37 41.71C604.67 41.01 604.27 40.05 604.27 39.06H605.77C605.77 39.65 606.01 40.23 606.43 40.65C606.85 41.07 607.43 41.31 608.02 41.31C609.26 41.31 610.27 40.3 610.27 39.06H611.77C611.77 41.13 610.09 42.81 608.02 42.81Z" fill="#292D32"/>
<path d="M30.2998 98.7783C30.1533 98.7783 30.0069 98.7243 29.8913 98.6087C29.2592 97.9766 28.9123 97.1364 28.9123 96.2499C28.9123 94.4076 30.4077 92.9122 32.25 92.9122C33.1365 92.9122 33.9767 93.2591 34.6088 93.8912C34.7167 93.9991 34.7783 94.1456 34.7783 94.2997C34.7783 94.4539 34.7167 94.6004 34.6088 94.7083L30.7083 98.6087C30.5927 98.7243 30.4463 98.7783 30.2998 98.7783ZM32.25 94.0685C31.0475 94.0685 30.0685 95.0474 30.0685 96.2499C30.0685 96.6354 30.1688 97.0054 30.3538 97.3291L33.3292 94.3537C33.0054 94.1687 32.6354 94.0685 32.25 94.0685Z" fill="#292D32"/>
<path d="M27.3167 101.268C27.1856 101.268 27.0469 101.222 26.939 101.129C26.1142 100.428 25.3742 99.5645 24.7421 98.5624C23.925 97.2905 23.925 95.217 24.7421 93.9374C26.6229 90.9928 29.3594 89.297 32.25 89.297C33.9458 89.297 35.6185 89.8828 37.0831 90.9851C37.3375 91.1778 37.3915 91.5401 37.1988 91.7945C37.006 92.0489 36.6438 92.1028 36.3894 91.9101C35.1252 90.9543 33.6915 90.4532 32.25 90.4532C29.7602 90.4532 27.3783 91.9487 25.7133 94.5618C25.1352 95.4637 25.1352 97.0362 25.7133 97.938C26.2915 98.8399 26.9544 99.6185 27.6867 100.251C27.9256 100.459 27.9565 100.821 27.7483 101.068C27.6404 101.199 27.4785 101.268 27.3167 101.268Z" fill="#292D32"/>
<path d="M32.25 103.203C31.2248 103.203 30.2227 102.995 29.2592 102.586C28.9663 102.463 28.8275 102.124 28.9508 101.831C29.0742 101.538 29.4133 101.399 29.7063 101.523C30.5233 101.869 31.379 102.047 32.2423 102.047C34.7321 102.047 37.114 100.551 38.779 97.9382C39.3571 97.0363 39.3571 95.4638 38.779 94.5619C38.54 94.1842 38.2779 93.8219 38.0004 93.4828C37.8 93.2361 37.8385 92.8738 38.0852 92.6657C38.3319 92.4653 38.6942 92.4961 38.9023 92.7505C39.2029 93.1205 39.4958 93.5213 39.7579 93.9376C40.575 95.2094 40.575 97.283 39.7579 98.5626C37.8771 101.507 35.1406 103.203 32.25 103.203Z" fill="#292D32"/>
<path d="M32.7819 99.5415C32.5121 99.5415 32.2654 99.3488 32.2115 99.0713C32.1498 98.7552 32.3579 98.4546 32.674 98.4006C33.5219 98.2465 34.231 97.5373 34.3852 96.6894C34.4469 96.3734 34.7475 96.1729 35.0635 96.2269C35.3796 96.2886 35.5877 96.5892 35.526 96.9052C35.2794 98.2388 34.2156 99.2948 32.8898 99.5415C32.8513 99.5338 32.8204 99.5415 32.7819 99.5415Z" fill="#292D32"/>
<path d="M24.5417 104.536C24.3952 104.536 24.2488 104.483 24.1331 104.367C23.9096 104.143 23.9096 103.773 24.1331 103.55L29.8913 97.7917C30.1148 97.5681 30.4848 97.5681 30.7083 97.7917C30.9319 98.0152 30.9319 98.3852 30.7083 98.6088L24.9502 104.367C24.8346 104.483 24.6881 104.536 24.5417 104.536Z" fill="#292D32"/>
<path d="M34.2002 94.8779C34.0537 94.8779 33.9073 94.8239 33.7917 94.7083C33.5681 94.4848 33.5681 94.1148 33.7917 93.8912L39.5498 88.1331C39.7733 87.9096 40.1433 87.9096 40.3669 88.1331C40.5904 88.3567 40.5904 88.7267 40.3669 88.9502L34.6087 94.7083C34.4931 94.8239 34.3467 94.8779 34.2002 94.8779Z" fill="#292D32"/>
<path d="M408.47 96.17C408.28 96.17 408.09 96.1 407.94 95.95L406.73 94.74L405.52 95.95C405.23 96.24 404.75 96.24 404.46 95.95C404.17 95.66 404.17 95.18 404.46 94.89L406.2 93.15C406.49 92.86 406.97 92.86 407.26 93.15L409 94.89C409.29 95.18 409.29 95.66 409 95.95C408.86 96.1 408.66 96.17 408.47 96.17Z" fill="#292D32"/>
<path d="M425.26 99.07C425.07 99.07 424.88 99 424.73 98.85L422.99 97.11C422.7 96.82 422.7 96.34 422.99 96.05C423.28 95.76 423.76 95.76 424.05 96.05L425.26 97.26L426.47 96.05C426.76 95.76 427.24 95.76 427.53 96.05C427.82 96.34 427.82 96.82 427.53 97.11L425.79 98.85C425.65 98.99 425.45 99.07 425.26 99.07Z" fill="#292D32"/>
<path d="M425.26 99.07C424.85 99.07 424.51 98.73 424.51 98.32V96C424.51 91.31 420.69 87.49 416 87.49C413.41 87.49 410.99 88.65 409.36 90.68C409.1 91 408.63 91.05 408.31 90.8C407.99 90.54 407.93 90.07 408.19 89.75C410.1 87.36 412.95 86 416 86C421.52 86 426.01 90.49 426.01 96.01V98.33C426.01 98.73 425.68 99.07 425.26 99.07Z" fill="#292D32"/>
<path d="M416 106.01C410.48 106.01 405.99 101.52 405.99 95.9999V93.6799C405.99 93.2699 406.33 92.9299 406.74 92.9299C407.15 92.9299 407.49 93.2699 407.49 93.6799V95.9999C407.49 100.69 411.31 104.51 416 104.51C418.59 104.51 421.01 103.35 422.64 101.32C422.9 101 423.37 100.94 423.69 101.2C424.01 101.46 424.07 101.93 423.81 102.25C421.9 104.64 419.05 106.01 416 106.01Z" fill="#292D32"/>
<path d="M417.38 96.75H413C412.59 96.75 412.25 96.41 412.25 96V92.5C412.25 92.09 412.59 91.75 413 91.75H417.38C418.71 91.75 419.88 92.92 419.88 94.25C419.88 95.63 418.75 96.75 417.38 96.75ZM413.75 95.25H417.37C417.92 95.25 418.37 94.8 418.37 94.25C418.37 93.8 417.92 93.25 417.37 93.25H413.75V95.25Z" fill="#292D32"/>
<path d="M418 100.25H413C412.59 100.25 412.25 99.91 412.25 99.5V96C412.25 95.59 412.59 95.25 413 95.25H418C419.52 95.25 420.75 96.37 420.75 97.75C420.75 99.13 419.52 100.25 418 100.25ZM413.75 98.75H418C418.69 98.75 419.25 98.3 419.25 97.75C419.25 97.2 418.69 96.75 418 96.75H413.75V98.75Z" fill="#292D32"/>
<path d="M415.8 102C415.39 102 415.05 101.66 415.05 101.25V99.5C415.05 99.09 415.39 98.75 415.8 98.75C416.21 98.75 416.55 99.09 416.55 99.5V101.25C416.55 101.66 416.21 102 415.8 102Z" fill="#292D32"/>
<path d="M415.8 93.25C415.39 93.25 415.05 92.91 415.05 92.5V90.75C415.05 90.34 415.39 90 415.8 90C416.21 90 416.55 90.34 416.55 90.75V92.5C416.55 92.91 416.21 93.25 415.8 93.25Z" fill="#292D32"/>
<path d="M356 107.72C355.73 107.72 355.48 107.57 355.35 107.34C355.22 107.11 355.22 106.82 355.36 106.59L356.41 104.84C356.62 104.48 357.08 104.37 357.44 104.58C357.8 104.79 357.91 105.25 357.7 105.61L357.43 106.06C360.19 105.41 362.26 102.93 362.26 99.97C362.26 99.56 362.6 99.22 363.01 99.22C363.42 99.22 363.76 99.56 363.76 99.97C363.75 104.24 360.27 107.72 356 107.72Z" fill="#292D32"/>
<path d="M341 92.72C340.59 92.72 340.25 92.38 340.25 91.97C340.25 87.7 343.73 84.22 348 84.22C348.27 84.22 348.52 84.37 348.65 84.6C348.78 84.83 348.78 85.12 348.64 85.35L347.59 87.1C347.38 87.46 346.92 87.57 346.56 87.36C346.2 87.15 346.09 86.69 346.3 86.33L346.57 85.88C343.81 86.53 341.74 89.01 341.74 91.97C341.75 92.38 341.41 92.72 341 92.72Z" fill="#292D32"/>
<path d="M349.43 100.08H346.62C346.21 100.08 345.87 99.74 345.87 99.33V97.08C345.87 96.67 346.21 96.33 346.62 96.33H349.43C350.43 96.33 351.31 97.21 351.31 98.21C351.31 99.23 350.46 100.08 349.43 100.08ZM347.37 98.58H349.43C349.64 98.58 349.81 98.41 349.81 98.2C349.81 98.05 349.64 97.8199 349.43 97.8199H347.37V98.58Z" fill="#292D32"/>
<path d="M349.83 102.33H346.61C346.2 102.33 345.86 101.99 345.86 101.58V99.33C345.86 98.92 346.2 98.58 346.61 98.58H349.83C350.95 98.58 351.87 99.42 351.87 100.46C351.87 101.5 350.96 102.33 349.83 102.33ZM347.37 100.83H349.84C350.16 100.83 350.38 100.63 350.38 100.45C350.38 100.27 350.16 100.07 349.84 100.07H347.37V100.83Z" fill="#292D32"/>
<path d="M348.42 103.45C348.01 103.45 347.67 103.11 347.67 102.7V101.57C347.67 101.16 348.01 100.82 348.42 100.82C348.83 100.82 349.17 101.16 349.17 101.57V102.7C349.17 103.12 348.83 103.45 348.42 103.45Z" fill="#292D32"/>
<path d="M348.42 97.8199C348.01 97.8199 347.67 97.4799 347.67 97.0699V95.9399C347.67 95.5299 348.01 95.1899 348.42 95.1899C348.83 95.1899 349.17 95.5299 349.17 95.9399V97.0699C349.17 97.4899 348.83 97.8199 348.42 97.8199Z" fill="#292D32"/>
<path d="M348.67 106.25C344.85 106.25 341.75 103.14 341.75 99.33C341.75 95.52 344.86 92.4099 348.67 92.4099C348.85 92.4099 349.01 92.4199 349.19 92.4299C352.58 92.6899 355.32 95.4299 355.57 98.7999C355.58 99.0199 355.59 99.17 355.59 99.33C355.6 103.14 352.49 106.25 348.67 106.25ZM348.67 93.9C345.68 93.9 343.25 96.3299 343.25 99.3199C343.25 102.31 345.68 104.74 348.67 104.74C351.66 104.74 354.1 102.31 354.1 99.3199C354.1 99.1899 354.09 99.0599 354.08 98.9299C353.88 96.2499 351.73 94.1099 349.09 93.9099C348.96 93.9099 348.82 93.9 348.67 93.9Z" fill="#292D32"/>
<path d="M355.33 99.6H354.84C354.45 99.6 354.12 99.3 354.09 98.91C353.89 96.26 351.75 94.12 349.1 93.92C348.71 93.89 348.41 93.56 348.41 93.17V92.68C348.41 88.86 351.52 85.76 355.34 85.76C359.16 85.76 362.26 88.87 362.26 92.68C362.26 96.49 359.14 99.6 355.33 99.6ZM349.9 92.51C352.72 93.02 354.98 95.27 355.49 98.1C358.41 98.01 360.75 95.61 360.75 92.68C360.75 89.69 358.32 87.26 355.33 87.26C352.39 87.25 349.99 89.59 349.9 92.51Z" fill="#292D32"/>
<path d="M289 93.25H278C277.59 93.25 277.25 92.91 277.25 92.5C277.25 92.09 277.59 91.75 278 91.75H289C289.41 91.75 289.75 92.09 289.75 92.5C289.75 92.91 289.41 93.25 289 93.25Z" fill="#292D32"/>
<path d="M284 101.25H282C281.59 101.25 281.25 100.91 281.25 100.5C281.25 100.09 281.59 99.75 282 99.75H284C284.41 99.75 284.75 100.09 284.75 100.5C284.75 100.91 284.41 101.25 284 101.25Z" fill="#292D32"/>
<path d="M290.5 101.25H286.5C286.09 101.25 285.75 100.91 285.75 100.5C285.75 100.09 286.09 99.75 286.5 99.75H290.5C290.91 99.75 291.25 100.09 291.25 100.5C291.25 100.91 290.91 101.25 290.5 101.25Z" fill="#292D32"/>
<path d="M293.56 105.25H282.44C278.46 105.25 277.25 104.05 277.25 100.11V91.89C277.25 87.95 278.46 86.75 282.44 86.75H289.28C289.69 86.75 290.03 87.09 290.03 87.5C290.03 87.91 289.69 88.25 289.28 88.25H282.44C279.3 88.25 278.75 88.79 278.75 91.89V100.11C278.75 103.21 279.3 103.75 282.44 103.75H293.56C296.7 103.75 297.25 103.21 297.25 100.11V95.33C297.25 94.92 297.59 94.58 298 94.58C298.41 94.58 298.75 94.92 298.75 95.33V100.11C298.75 104.05 297.54 105.25 293.56 105.25Z" fill="#292D32"/>
<path d="M296.12 90.5H293C292.59 90.5 292.25 90.16 292.25 89.75V87.25C292.25 86.84 292.59 86.5 293 86.5H296.13C297.2 86.5 298.13 87.43 298.13 88.5C298.12 89.6 297.23 90.5 296.12 90.5ZM293.75 89H296.13C296.41 89 296.63 88.78 296.63 88.5C296.63 88.28 296.39 88 296.13 88H293.75V89Z" fill="#292D32"/>
<path d="M296.57 93H293C292.59 93 292.25 92.66 292.25 92.25V89.75C292.25 89.34 292.59 89 293 89H296.57C297.77 89 298.75 89.9 298.75 91C298.75 92.1 297.77 93 296.57 93ZM293.75 91.5H296.57C296.94 91.5 297.25 91.27 297.25 91C297.25 90.73 296.94 90.5 296.57 90.5H293.75V91.5Z" fill="#292D32"/>
<path d="M294.76 94.25C294.35 94.25 294.01 93.91 294.01 93.5V92.25C294.01 91.84 294.35 91.5 294.76 91.5C295.17 91.5 295.51 91.84 295.51 92.25V93.5C295.51 93.92 295.18 94.25 294.76 94.25Z" fill="#292D32"/>
<path d="M294.76 88C294.35 88 294.01 87.66 294.01 87.25V86C294.01 85.59 294.35 85.25 294.76 85.25C295.17 85.25 295.51 85.59 295.51 86V87.25C295.51 87.66 295.18 88 294.76 88Z" fill="#292D32"/>
<path d="M294.19 88H292C291.59 88 291.25 87.66 291.25 87.25C291.25 86.84 291.59 86.5 292 86.5H294.19C294.6 86.5 294.94 86.84 294.94 87.25C294.94 87.66 294.6 88 294.19 88Z" fill="#292D32"/>
<path d="M294.19 93H292C291.59 93 291.25 92.66 291.25 92.25C291.25 91.84 291.59 91.5 292 91.5H294.19C294.6 91.5 294.94 91.84 294.94 92.25C294.94 92.66 294.6 93 294.19 93Z" fill="#292D32"/>
<path d="M227.5 99.75C227.32 99.75 227.12 99.74 226.94 99.73C226.57 99.71 226.27 99.41 226.24 99.04C226.02 96.25 223.75 93.99 220.97 93.77C220.6 93.74 220.3 93.44 220.28 93.07C220.27 92.89 220.26 92.69 220.26 92.51C220.26 88.51 223.51 85.26 227.51 85.26C231.51 85.26 234.76 88.51 234.76 92.51C234.76 96.51 231.5 99.75 227.5 99.75ZM221.75 92.36C224.73 92.89 227.12 95.27 227.64 98.25C230.75 98.17 233.25 95.63 233.25 92.5C233.25 89.33 230.67 86.75 227.5 86.75C224.38 86.75 221.83 89.25 221.75 92.36Z" fill="#292D32"/>
<path d="M220.5 106.75C216.5 106.75 213.25 103.5 213.25 99.5C213.25 95.5 216.5 92.25 220.5 92.25C220.68 92.25 220.88 92.26 221.06 92.27C224.59 92.55 227.45 95.41 227.72 98.92C227.73 99.12 227.74 99.32 227.74 99.5C227.75 103.5 224.5 106.75 220.5 106.75ZM220.5 93.75C217.33 93.75 214.75 96.33 214.75 99.5C214.75 102.67 217.33 105.25 220.5 105.25C223.67 105.25 226.25 102.67 226.25 99.5C226.25 99.34 226.24 99.18 226.23 99.02C226.01 96.25 223.74 93.98 220.96 93.76C220.82 93.76 220.66 93.75 220.5 93.75Z" fill="#292D32"/>
<path d="M220.5 102.75C220.23 102.75 219.97 102.6 219.84 102.36L219.06 100.94L217.64 100.16C217.4 100.03 217.25 99.78 217.25 99.5C217.25 99.22 217.4 98.97 217.64 98.84L219.06 98.06L219.84 96.64C220.1 96.16 220.89 96.16 221.16 96.64L221.94 98.06L223.36 98.84C223.6 98.97 223.75 99.22 223.75 99.5C223.75 99.78 223.6 100.03 223.36 100.16L221.94 100.94L221.16 102.36C221.03 102.6 220.77 102.75 220.5 102.75ZM219.56 99.5L219.97 99.73C220.1 99.8 220.2 99.9 220.27 100.03L220.5 100.44L220.73 100.03C220.8 99.9 220.9 99.8 221.03 99.73L221.44 99.5L221.03 99.27C220.9 99.2 220.8 99.1 220.73 98.97L220.5 98.56L220.27 98.97C220.2 99.1 220.1 99.2 219.97 99.27L219.56 99.5Z" fill="#292D32"/>
<path d="M163.5 99.75C163.32 99.75 163.12 99.74 162.93 99.73C162.56 99.71 162.26 99.41 162.23 99.04C162.01 96.25 159.74 93.99 156.96 93.77C156.59 93.74 156.29 93.44 156.27 93.07C156.26 92.88 156.25 92.69 156.25 92.5C156.25 88.5 159.5 85.25 163.5 85.25C167.5 85.25 170.75 88.5 170.75 92.5C170.75 96.5 167.5 99.75 163.5 99.75ZM157.75 92.36C160.73 92.88 163.12 95.27 163.64 98.25C166.75 98.17 169.25 95.63 169.25 92.5C169.25 89.33 166.67 86.75 163.5 86.75C160.38 86.75 157.83 89.25 157.75 92.36Z" fill="#292D32"/>
<path d="M156.5 106.75C152.5 106.75 149.25 103.5 149.25 99.5C149.25 95.5 152.5 92.25 156.5 92.25C156.68 92.25 156.88 92.26 157.07 92.27C160.6 92.55 163.46 95.41 163.73 98.92C163.74 99.12 163.75 99.31 163.75 99.5C163.75 103.5 160.5 106.75 156.5 106.75ZM156.5 93.75C153.33 93.75 150.75 96.33 150.75 99.5C150.75 102.67 153.33 105.25 156.5 105.25C159.67 105.25 162.25 102.67 162.25 99.5C162.25 99.34 162.24 99.18 162.23 99.03C162.01 96.26 159.75 93.99 156.96 93.77C156.82 93.76 156.66 93.75 156.5 93.75Z" fill="#292D32"/>
<path d="M151 91.34C150.77 91.34 150.55 91.3 150.33 91.21C149.67 90.94 149.25 90.3 149.25 89.59V87C149.25 86.04 150.04 85.25 151 85.25H153.59C154.3 85.25 154.93 85.67 155.21 86.33C155.48 86.99 155.33 87.74 154.83 88.24L152.24 90.83C151.9 91.16 151.46 91.34 151 91.34ZM151 86.75C150.86 86.75 150.75 86.86 150.75 87V89.59C150.75 89.74 150.85 89.8 150.9 89.82C150.96 89.84 151.07 89.87 151.17 89.77L153.76 87.18C153.86 87.08 153.84 86.97 153.81 86.91C153.78 86.85 153.72 86.76 153.58 86.76H151V86.75Z" fill="#292D32"/>
<path d="M169 106.75H166.41C165.7 106.75 165.07 106.33 164.79 105.67C164.52 105.01 164.67 104.26 165.17 103.76L167.76 101.17C168.26 100.67 169.01 100.52 169.67 100.79C170.33 101.06 170.75 101.7 170.75 102.41V105C170.75 105.96 169.96 106.75 169 106.75ZM168.99 102.16C168.94 102.16 168.88 102.18 168.82 102.24L166.23 104.83C166.13 104.93 166.15 105.04 166.18 105.1C166.21 105.16 166.27 105.25 166.41 105.25H169C169.14 105.25 169.25 105.14 169.25 105V102.41C169.25 102.26 169.15 102.2 169.1 102.18C169.07 102.17 169.03 102.16 168.99 102.16Z" fill="#292D32"/>
<path d="M96 101.81H86C85.59 101.81 85.25 101.47 85.25 101.06C85.25 100.65 85.59 100.31 86 100.31H96C96.41 100.31 96.75 100.65 96.75 101.06C96.75 101.48 96.41 101.81 96 101.81Z" fill="#292D32"/>
<path d="M93.7798 106.75H88.2297C86.0397 106.75 85.2598 105.98 85.2598 103.8V99.7C85.2598 97.52 86.0397 96.75 88.2297 96.75H93.7798C95.9698 96.75 96.7498 97.52 96.7498 99.7V103.81C96.7498 105.98 95.9698 106.75 93.7798 106.75ZM88.2197 98.25C86.8597 98.25 86.7498 98.36 86.7498 99.7V103.81C86.7498 105.15 86.8597 105.26 88.2197 105.26H93.7698C95.1298 105.26 95.2397 105.15 95.2397 103.81V99.7C95.2397 98.36 95.1298 98.25 93.7698 98.25H88.2197Z" fill="#292D32"/>
<path d="M99.0002 106.75C98.7302 106.75 98.4802 106.6 98.3502 106.37C98.2202 106.13 98.2202 105.85 98.3602 105.61L99.4102 103.86C99.6202 103.51 100.08 103.39 100.44 103.6C100.8 103.81 100.91 104.27 100.7 104.63L100.43 105.08C103.19 104.43 105.26 101.95 105.26 98.99C105.26 98.58 105.6 98.24 106.01 98.24C106.42 98.24 106.76 98.58 106.76 98.99C106.75 103.27 103.27 106.75 99.0002 106.75Z" fill="#292D32"/>
<path d="M86 93.75C85.59 93.75 85.25 93.41 85.25 93C85.25 88.73 88.73 85.25 93 85.25C93.27 85.25 93.52 85.4 93.65 85.63C93.78 85.87 93.78 86.15 93.64 86.39L92.59 88.14C92.38 88.49 91.92 88.61 91.56 88.4C91.2 88.19 91.09 87.73 91.3 87.37L91.57 86.92C88.81 87.57 86.74 90.05 86.74 93.01C86.75 93.41 86.41 93.75 86 93.75Z" fill="#292D32"/>
<path d="M102.5 95.75C99.61 95.75 97.25 93.4 97.25 90.5C97.25 87.6 99.6 85.25 102.5 85.25C105.4 85.25 107.75 87.6 107.75 90.5C107.75 93.4 105.39 95.75 102.5 95.75ZM102.5 86.75C100.43 86.75 98.75 88.43 98.75 90.5C98.75 92.57 100.43 94.25 102.5 94.25C104.57 94.25 106.25 92.57 106.25 90.5C106.25 88.43 104.57 86.75 102.5 86.75Z" fill="#292D32"/>
<path d="M41 26.73C40.98 26.73 40.95 26.73 40.92 26.73C35.63 26.2 30.35 26 25.12 26.53L23.08 26.73C22.66 26.77 22.29 26.47 22.25 26.05C22.21 25.63 22.51 25.27 22.92 25.23L24.96 25.03C30.28 24.49 35.67 24.7 41.07 25.23C41.48 25.27 41.78 25.64 41.74 26.05C41.71 26.44 41.38 26.73 41 26.73Z" fill="#292D32"/>
<path d="M28.5 25.72C28.46 25.72 28.42 25.72 28.37 25.71C27.97 25.64 27.69 25.25 27.76 24.85L27.98 23.54C28.14 22.58 28.36 21.25 30.69 21.25H33.31C35.65 21.25 35.87 22.63 36.02 23.55L36.24 24.85C36.31 25.26 36.03 25.65 35.63 25.71C35.22 25.78 34.83 25.5 34.77 25.1L34.55 23.8C34.41 22.93 34.38 22.76 33.32 22.76H30.7C29.64 22.76 29.62 22.9 29.47 23.79L29.24 25.09C29.18 25.46 28.86 25.72 28.5 25.72Z" fill="#292D32"/>
<path d="M35.21 42.75H28.79C25.3 42.75 25.16 40.82 25.05 39.26L24.4 29.19C24.37 28.78 24.69 28.42 25.1 28.39C25.52 28.37 25.87 28.68 25.9 29.09L26.55 39.16C26.66 40.68 26.7 41.25 28.79 41.25H35.21C37.31 41.25 37.35 40.68 37.45 39.16L38.1 29.09C38.13 28.68 38.49 28.37 38.9 28.39C39.31 28.42 39.63 28.77 39.6 29.19L38.95 39.26C38.84 40.82 38.7 42.75 35.21 42.75Z" fill="#292D32"/>
<path d="M33.66 37.25H30.33C29.92 37.25 29.58 36.91 29.58 36.5C29.58 36.09 29.92 35.75 30.33 35.75H33.66C34.07 35.75 34.41 36.09 34.41 36.5C34.41 36.91 34.07 37.25 33.66 37.25Z" fill="#292D32"/>
<path d="M34.5 33.25H29.5C29.09 33.25 28.75 32.91 28.75 32.5C28.75 32.09 29.09 31.75 29.5 31.75H34.5C34.91 31.75 35.25 32.09 35.25 32.5C35.25 32.91 34.91 33.25 34.5 33.25Z" fill="#292D32"/>
<path d="M357.79 42.75H346.21C343.47 42.75 341.25 40.52 341.25 37.78V30.37C341.25 29.01 342.09 27.3 343.17 26.46L348.56 22.26C350.18 21 352.77 20.94 354.45 22.12L360.63 26.45C361.82 27.28 362.75 29.06 362.75 30.51V37.79C362.75 40.52 360.53 42.75 357.79 42.75ZM349.48 23.44L344.09 27.64C343.38 28.2 342.75 29.47 342.75 30.37V37.78C342.75 39.69 344.3 41.25 346.21 41.25H357.79C359.7 41.25 361.25 39.7 361.25 37.79V30.51C361.25 29.55 360.56 28.22 359.77 27.68L353.59 23.35C352.45 22.55 350.57 22.59 349.48 23.44Z" fill="#292D32"/>
<path d="M352 38.75C351.59 38.75 351.25 38.41 351.25 38V35C351.25 34.59 351.59 34.25 352 34.25C352.41 34.25 352.75 34.59 352.75 35V38C352.75 38.41 352.41 38.75 352 38.75Z" fill="#292D32"/>
<path d="M416 42.75C410.07 42.75 405.25 37.93 405.25 32C405.25 26.07 410.07 21.25 416 21.25C421.93 21.25 426.75 26.07 426.75 32C426.75 37.93 421.93 42.75 416 42.75ZM416 22.75C410.9 22.75 406.75 26.9 406.75 32C406.75 37.1 410.9 41.25 416 41.25C421.1 41.25 425.25 37.1 425.25 32C425.25 26.9 421.1 22.75 416 22.75Z" fill="#292D32"/>
<path d="M414.58 35.58C414.38 35.58 414.19 35.5 414.05 35.36L411.22 32.53C410.93 32.24 410.93 31.76 411.22 31.47C411.51 31.18 411.99 31.18 412.28 31.47L414.58 33.77L419.72 28.63C420.01 28.34 420.49 28.34 420.78 28.63C421.07 28.92 421.07 29.4 420.78 29.69L415.11 35.36C414.97 35.5 414.78 35.58 414.58 35.58Z" fill="#292D32"/>
<path d="M96.25 40.5364C91.679 40.5364 87.9635 36.821 87.9635 32.25C87.9635 27.6789 91.679 23.9635 96.25 23.9635C100.821 23.9635 104.536 27.6789 104.536 32.25C104.536 36.821 100.821 40.5364 96.25 40.5364ZM96.25 25.1198C92.3188 25.1198 89.1198 28.3187 89.1198 32.25C89.1198 36.1812 92.3188 39.3802 96.25 39.3802C100.181 39.3802 103.38 36.1812 103.38 32.25C103.38 28.3187 100.181 25.1198 96.25 25.1198Z" fill="#292D32"/>
<path d="M94.0685 35.0096C93.9221 35.0096 93.7756 34.9556 93.66 34.84C93.4365 34.6165 93.4365 34.2465 93.66 34.0229L98.0229 29.66C98.2465 29.4365 98.6165 29.4365 98.84 29.66C99.0635 29.8835 99.0635 30.2535 98.84 30.4771L94.4771 34.84C94.3692 34.9556 94.215 35.0096 94.0685 35.0096Z" fill="#292D32"/>
<path d="M98.4315 35.0096C98.285 35.0096 98.1385 34.9556 98.0229 34.84L93.66 30.4771C93.4365 30.2535 93.4365 29.8835 93.66 29.66C93.8835 29.4365 94.2535 29.4365 94.4771 29.66L98.84 34.0229C99.0635 34.2465 99.0635 34.6165 98.84 34.84C98.7244 34.9556 98.5779 35.0096 98.4315 35.0096Z" fill="#292D32"/>
<path d="M489 27.75H471C470.59 27.75 470.25 27.41 470.25 27C470.25 26.59 470.59 26.25 471 26.25H489C489.41 26.25 489.75 26.59 489.75 27C489.75 27.41 489.41 27.75 489 27.75Z" fill="#292D32"/>
<path d="M486 32.75H474C473.59 32.75 473.25 32.41 473.25 32C473.25 31.59 473.59 31.25 474 31.25H486C486.41 31.25 486.75 31.59 486.75 32C486.75 32.41 486.41 32.75 486 32.75Z" fill="#292D32"/>
<path d="M482 37.75H478C477.59 37.75 477.25 37.41 477.25 37C477.25 36.59 477.59 36.25 478 36.25H482C482.41 36.25 482.75 36.59 482.75 37C482.75 37.41 482.41 37.75 482 37.75Z" fill="#292D32"/>
<path d="M162.22 41.63C161.04 41.63 159.37 40.8 158.05 36.83L157.33 34.67L155.17 33.95C151.21 32.63 150.38 30.96 150.38 29.78C150.38 28.61 151.21 26.93 155.17 25.6L163.66 22.77C165.78 22.06 167.55 22.27 168.64 23.35C169.73 24.43 169.94 26.21 169.23 28.33L166.4 36.82C165.07 40.8 163.4 41.63 162.22 41.63ZM155.64 27.03C152.86 27.96 151.87 29.06 151.87 29.78C151.87 30.5 152.86 31.6 155.64 32.52L158.16 33.36C158.38 33.43 158.56 33.61 158.63 33.83L159.47 36.35C160.39 39.13 161.5 40.12 162.22 40.12C162.94 40.12 164.04 39.13 164.97 36.35L167.8 27.86C168.31 26.32 168.22 25.06 167.57 24.41C166.92 23.76 165.66 23.68 164.13 24.19L155.64 27.03Z" fill="#292D32"/>
<path d="M158.11 34.4C157.92 34.4 157.73 34.33 157.58 34.18C157.29 33.89 157.29 33.41 157.58 33.12L161.16 29.53C161.45 29.24 161.93 29.24 162.22 29.53C162.51 29.82 162.51 30.3 162.22 30.59L158.64 34.18C158.5 34.33 158.3 34.4 158.11 34.4Z" fill="#292D32"/>
<path d="M287.07 38.17C286.9 38.17 286.74 38.14 286.57 38.08C286.02 37.87 285.66 37.36 285.66 36.77V33.47H284.68C284.12 33.47 283.63 33.15 283.4 32.65C283.17 32.14 283.26 31.57 283.63 31.15L287.89 26.31C288.28 25.87 288.88 25.72 289.43 25.93C289.98 26.14 290.34 26.65 290.34 27.24V30.54H291.33C291.89 30.54 292.38 30.86 292.61 31.36C292.84 31.87 292.75 32.44 292.38 32.86L288.12 37.7C287.84 38 287.46 38.17 287.07 38.17ZM284.9 31.97H286.41C286.82 31.97 287.16 32.31 287.16 32.72V36.5L291.1 32.03H289.59C289.18 32.03 288.84 31.69 288.84 31.28V27.5L284.9 31.97Z" fill="#292D32"/>
<path d="M287.97 42.75C282.05 42.75 277.22 37.93 277.22 32C277.22 26.07 282.05 21.25 287.97 21.25C293.89 21.25 298.72 26.07 298.72 32C298.72 37.93 293.9 42.75 287.97 42.75ZM287.97 22.75C282.87 22.75 278.72 26.9 278.72 32C278.72 37.1 282.87 41.25 287.97 41.25C293.07 41.25 297.22 37.1 297.22 32C297.22 26.9 293.07 22.75 287.97 22.75Z" fill="#292D32"/>
</svg>
