<svg width="24" height="24" viewBox="0 0 24 24" fill="none" xmlns="http://www.w3.org/2000/svg">
<path d="M12.25 20.5364C7.67896 20.5364 3.96355 16.821 3.96355 12.25C3.96355 7.67895 7.67896 3.96353 12.25 3.96353C16.821 3.96353 20.5365 7.67895 20.5365 12.25C20.5365 16.821 16.821 20.5364 12.25 20.5364ZM12.25 5.11978C8.31876 5.11978 5.1198 8.31874 5.1198 12.25C5.1198 16.1812 8.31876 19.3802 12.25 19.3802C16.1813 19.3802 19.3802 16.1812 19.3802 12.25C19.3802 8.31874 16.1813 5.11978 12.25 5.11978Z" fill="#292D32"/>
<path d="M10.0685 15.0096C9.92208 15.0096 9.77562 14.9556 9.66 14.84C9.43645 14.6165 9.43645 14.2465 9.66 14.0229L14.0229 9.66C14.2465 9.43645 14.6165 9.43645 14.84 9.66C15.0635 9.88354 15.0635 10.2535 14.84 10.4771L10.4771 14.84C10.3692 14.9556 10.215 15.0096 10.0685 15.0096Z" fill="#292D32"/>
<path d="M14.4315 15.0096C14.285 15.0096 14.1385 14.9556 14.0229 14.84L9.66 10.4771C9.43645 10.2535 9.43645 9.88354 9.66 9.66C9.88354 9.43645 10.2535 9.43645 10.4771 9.66L14.84 14.0229C15.0635 14.2465 15.0635 14.6165 14.84 14.84C14.7244 14.9556 14.5779 15.0096 14.4315 15.0096Z" fill="#292D32"/>
</svg>
