<svg width="32" height="32" viewBox="0 0 32 32" fill="none" xmlns="http://www.w3.org/2000/svg">
<g clip-path="url(#clip0_615_252)">
<path d="M16 22.4C12.4654 22.4 9.60002 19.5346 9.60002 16C9.60002 12.4654 12.4654 9.60004 16 9.60004C19.5346 9.60004 22.4 12.4654 22.4 16C22.4 19.5346 19.5346 22.4 16 22.4Z" fill="#AE9AFF"/>
<path d="M3.65289 18.5864C1.81841 18.9039 0.560978 20.6436 1.26517 22.3367C2.24832 24.7003 3.81679 26.8062 5.85021 28.4519C8.75784 30.8048 12.4252 32.0621 16.1928 31.9976C19.9604 31.9331 23.5809 30.5508 26.4032 28.0996C28.3768 26.3854 29.8695 24.227 30.7681 21.8311C31.4116 20.115 30.093 18.4194 28.2484 18.1649C26.4038 17.9104 24.7476 19.2285 23.8365 20.8236C23.3426 21.6882 22.7014 22.4726 21.9334 23.1397C20.3141 24.5462 18.2368 25.3392 16.0752 25.3762C13.9135 25.4132 11.8093 24.6919 10.141 23.3418C9.34962 22.7014 8.68103 21.9395 8.15669 21.0923C7.18943 19.5294 5.48736 18.2688 3.65289 18.5864Z" fill="#AE9AFF"/>
<path d="M31.8763 17.5921C31.958 16.9518 32 16.2996 32 15.6378C32 7.0013 24.8366 0 16 0C7.16345 0 0 7.0013 0 15.6378C0 16.4872 0.06928 17.3207 0.202624 18.1333C0.937536 17.15 2.08454 16.4481 3.32348 16.2346C4.66395 16.0036 5.88222 16.3213 6.91229 16.9152C6.85144 16.498 6.81995 16.0715 6.81995 15.6378C6.81995 10.6826 10.93 6.66558 16 6.66558C21.07 6.66558 25.1801 10.6826 25.1801 15.6378C25.1801 15.9646 25.1621 16.2872 25.1274 16.6049C26.1357 15.9759 27.3421 15.6166 28.6902 15.8018C29.9357 15.9729 31.1067 16.6349 31.8763 17.5921Z" fill="#5429FF"/>
</g>
<defs>
<clipPath id="clip0_615_252">
<rect width="32" height="32" fill="white"/>
</clipPath>
</defs>
</svg>
