<svg width="104" height="32" viewBox="0 0 104 32" fill="none" xmlns="http://www.w3.org/2000/svg">
<g clip-path="url(#clip0_615_251)">
<path d="M16 22.4C12.4654 22.4 9.60002 19.5346 9.60002 16C9.60002 12.4654 12.4654 9.60004 16 9.60004C19.5346 9.60004 22.4 12.4654 22.4 16C22.4 19.5346 19.5346 22.4 16 22.4Z" fill="#AE9AFF"/>
<path d="M3.65289 18.5864C1.81841 18.9039 0.560978 20.6436 1.26517 22.3367C2.24832 24.7003 3.81679 26.8062 5.85021 28.4519C8.75784 30.8048 12.4252 32.0621 16.1928 31.9976C19.9604 31.9331 23.5809 30.5508 26.4032 28.0996C28.3768 26.3854 29.8695 24.227 30.7681 21.8311C31.4116 20.115 30.093 18.4194 28.2484 18.1649C26.4038 17.9104 24.7476 19.2285 23.8365 20.8236C23.3426 21.6882 22.7014 22.4726 21.9334 23.1397C20.3141 24.5462 18.2368 25.3392 16.0752 25.3762C13.9135 25.4132 11.8093 24.6919 10.141 23.3418C9.34962 22.7014 8.68103 21.9395 8.15669 21.0923C7.18943 19.5294 5.48736 18.2688 3.65289 18.5864Z" fill="#AE9AFF"/>
<path d="M31.8763 17.5921C31.958 16.9518 32 16.2996 32 15.6378C32 7.0013 24.8366 0 16 0C7.16345 0 0 7.0013 0 15.6378C0 16.4872 0.06928 17.3207 0.202624 18.1333C0.937536 17.15 2.08454 16.4481 3.32348 16.2346C4.66395 16.0036 5.88222 16.3213 6.91229 16.9152C6.85144 16.498 6.81995 16.0715 6.81995 15.6378C6.81995 10.6826 10.93 6.66558 16 6.66558C21.07 6.66558 25.1801 10.6826 25.1801 15.6378C25.1801 15.9646 25.1621 16.2872 25.1274 16.6049C26.1357 15.9759 27.3421 15.6166 28.6902 15.8018C29.9357 15.9729 31.1067 16.6349 31.8763 17.5921Z" fill="#5429FF"/>
</g>
<path d="M42.2614 21.5H40.3977L44.5852 9.86364H46.6136L50.8011 21.5H48.9375L45.6477 11.9773H45.5568L42.2614 21.5ZM42.5739 16.9432H48.6193V18.4205H42.5739V16.9432ZM52.5052 21.5V12.7727H54.1472V14.1591H54.2381C54.3972 13.6894 54.6775 13.3201 55.079 13.0511C55.4843 12.7784 55.9427 12.642 56.454 12.642C56.5601 12.642 56.6851 12.6458 56.829 12.6534C56.9768 12.661 57.0923 12.6705 57.1756 12.6818V14.3068C57.1074 14.2879 56.9862 14.267 56.812 14.2443C56.6377 14.2178 56.4635 14.2045 56.2893 14.2045C55.8877 14.2045 55.5298 14.2898 55.2154 14.4602C54.9048 14.6269 54.6586 14.8598 54.4768 15.1591C54.2949 15.4545 54.204 15.7917 54.204 16.1705V21.5H52.5052ZM63.3953 12.7727V14.1364H58.6282V12.7727H63.3953ZM59.9066 10.6818H61.6055V18.9375C61.6055 19.267 61.6548 19.5152 61.7532 19.6818C61.8517 19.8447 61.9786 19.9564 62.1339 20.017C62.293 20.0739 62.4654 20.1023 62.651 20.1023C62.7873 20.1023 62.9066 20.0928 63.0089 20.0739C63.1112 20.0549 63.1907 20.0398 63.2476 20.0284L63.5544 21.4318C63.4559 21.4697 63.3157 21.5076 63.1339 21.5455C62.9521 21.5871 62.7248 21.6098 62.4521 21.6136C62.0051 21.6212 61.5885 21.5417 61.2021 21.375C60.8157 21.2083 60.5032 20.9508 60.2646 20.6023C60.026 20.2538 59.9066 19.8163 59.9066 19.2898V10.6818ZM66.463 9.86364L69.7016 19.3409H69.8323L73.0709 9.86364H74.9686L70.7811 21.5H68.7527L64.5652 9.86364H66.463ZM76.6727 21.5V12.7727H78.3715V21.5H76.6727ZM77.5306 11.4261C77.2352 11.4261 76.9814 11.3277 76.7693 11.1307C76.5609 10.9299 76.4568 10.6913 76.4568 10.4148C76.4568 10.1345 76.5609 9.89583 76.7693 9.69886C76.9814 9.49811 77.2352 9.39773 77.5306 9.39773C77.8261 9.39773 78.078 9.49811 78.2863 9.69886C78.4984 9.89583 78.6045 10.1345 78.6045 10.4148C78.6045 10.6913 78.4984 10.9299 78.2863 11.1307C78.078 11.3277 77.8261 11.4261 77.5306 11.4261ZM87.3568 14.9034L85.817 15.1761C85.7527 14.9792 85.6504 14.7917 85.5102 14.6136C85.3739 14.4356 85.1883 14.2898 84.9534 14.1761C84.7186 14.0625 84.425 14.0057 84.0727 14.0057C83.5917 14.0057 83.1902 14.1136 82.8682 14.3295C82.5462 14.5417 82.3852 14.8163 82.3852 15.1534C82.3852 15.4451 82.4932 15.6799 82.7091 15.858C82.925 16.036 83.2735 16.1818 83.7545 16.2955L85.1409 16.6136C85.9439 16.7992 86.5424 17.0852 86.9364 17.4716C87.3303 17.858 87.5273 18.3598 87.5273 18.9773C87.5273 19.5 87.3758 19.9659 87.0727 20.375C86.7735 20.7803 86.3549 21.0985 85.817 21.3295C85.283 21.5606 84.6636 21.6761 83.9591 21.6761C82.9818 21.6761 82.1845 21.4678 81.567 21.0511C80.9496 20.6307 80.5708 20.0341 80.4307 19.2614L82.0727 19.0114C82.175 19.4394 82.3852 19.7633 82.7034 19.983C83.0216 20.1989 83.4364 20.3068 83.9477 20.3068C84.5045 20.3068 84.9496 20.1913 85.283 19.9602C85.6163 19.7254 85.783 19.4394 85.783 19.1023C85.783 18.8295 85.6807 18.6004 85.4761 18.4148C85.2754 18.2292 84.9667 18.089 84.55 17.9943L83.0727 17.6705C82.2583 17.4848 81.6561 17.1894 81.2659 16.7841C80.8795 16.3788 80.6864 15.8655 80.6864 15.2443C80.6864 14.7292 80.8303 14.2784 81.1182 13.892C81.4061 13.5057 81.8038 13.2045 82.3114 12.9886C82.8189 12.7689 83.4004 12.6591 84.0557 12.6591C84.9989 12.6591 85.7413 12.8636 86.283 13.2727C86.8246 13.678 87.1826 14.2216 87.3568 14.9034ZM93.629 12.7727V14.1364H88.862V12.7727H93.629ZM90.1404 10.6818H91.8393V18.9375C91.8393 19.267 91.8885 19.5152 91.987 19.6818C92.0855 19.8447 92.2124 19.9564 92.3677 20.017C92.5268 20.0739 92.6991 20.1023 92.8847 20.1023C93.0211 20.1023 93.1404 20.0928 93.2427 20.0739C93.3449 20.0549 93.4245 20.0398 93.4813 20.0284L93.7881 21.4318C93.6896 21.4697 93.5495 21.5076 93.3677 21.5455C93.1859 21.5871 92.9586 21.6098 92.6859 21.6136C92.2389 21.6212 91.8222 21.5417 91.4359 21.375C91.0495 21.2083 90.737 20.9508 90.4984 20.6023C90.2597 20.2538 90.1404 19.8163 90.1404 19.2898V10.6818ZM98.2081 21.6932C97.655 21.6932 97.155 21.5909 96.7081 21.3864C96.2611 21.178 95.9069 20.8769 95.6456 20.483C95.388 20.089 95.2592 19.6061 95.2592 19.0341C95.2592 18.5417 95.3539 18.1364 95.5433 17.8182C95.7327 17.5 95.9884 17.2481 96.3103 17.0625C96.6323 16.8769 96.9922 16.7367 97.3899 16.642C97.7876 16.5473 98.1929 16.4754 98.6058 16.4261C99.1285 16.3655 99.5528 16.3163 99.8785 16.2784C100.204 16.2367 100.441 16.1705 100.589 16.0795C100.736 15.9886 100.81 15.8409 100.81 15.6364V15.5966C100.81 15.1004 100.67 14.7159 100.39 14.4432C100.113 14.1705 99.7005 14.0341 99.1512 14.0341C98.5793 14.0341 98.1285 14.161 97.799 14.4148C97.4732 14.6648 97.2478 14.9432 97.1228 15.25L95.5262 14.8864C95.7156 14.3561 95.9922 13.928 96.3558 13.6023C96.7232 13.2727 97.1456 13.0341 97.6228 12.8864C98.1001 12.7348 98.602 12.6591 99.1285 12.6591C99.477 12.6591 99.8463 12.7008 100.236 12.7841C100.63 12.8636 100.998 13.0114 101.339 13.2273C101.683 13.4432 101.966 13.7519 102.185 14.1534C102.405 14.5511 102.515 15.0682 102.515 15.7045V21.5H100.856V20.3068H100.788C100.678 20.5265 100.513 20.7424 100.293 20.9545C100.074 21.1667 99.7914 21.3428 99.4467 21.483C99.102 21.6231 98.6891 21.6932 98.2081 21.6932ZM98.5774 20.3295C99.0471 20.3295 99.4486 20.2367 99.7819 20.0511C100.119 19.8655 100.375 19.6231 100.549 19.3239C100.727 19.0208 100.816 18.697 100.816 18.3523V17.2273C100.755 17.2879 100.638 17.3447 100.464 17.3977C100.293 17.447 100.098 17.4905 99.8785 17.5284C99.6588 17.5625 99.4448 17.5947 99.2365 17.625C99.0281 17.6515 98.8539 17.6742 98.7137 17.6932C98.3842 17.7348 98.0831 17.8049 97.8103 17.9034C97.5414 18.0019 97.3255 18.1439 97.1626 18.3295C97.0035 18.5114 96.924 18.7538 96.924 19.0568C96.924 19.4773 97.0793 19.7955 97.3899 20.0114C97.7005 20.2235 98.0963 20.3295 98.5774 20.3295Z" fill="black"/>
<defs>
<clipPath id="clip0_615_251">
<rect width="32" height="32" fill="white"/>
</clipPath>
</defs>
</svg>
