<svg width="24" height="24" viewBox="0 0 24 24" fill="none" xmlns="http://www.w3.org/2000/svg">
<path d="M10.2998 14.7783C10.1533 14.7783 10.0069 14.7243 9.89125 14.6087C9.25917 13.9766 8.91229 13.1364 8.91229 12.2499C8.91229 10.4076 10.4077 8.91223 12.25 8.91223C13.1365 8.91223 13.9767 9.25911 14.6088 9.89119C14.7167 9.99911 14.7783 10.1456 14.7783 10.2997C14.7783 10.4539 14.7167 10.6004 14.6088 10.7083L10.7083 14.6087C10.5927 14.7243 10.4463 14.7783 10.2998 14.7783ZM12.25 10.0685C11.0475 10.0685 10.0685 11.0474 10.0685 12.2499C10.0685 12.6354 10.1688 13.0054 10.3538 13.3291L13.3292 10.3537C13.0054 10.1687 12.6354 10.0685 12.25 10.0685Z" fill="#292D32"/>
<path d="M7.31667 17.268C7.18563 17.268 7.04688 17.2218 6.93896 17.1293C6.11417 16.4278 5.37417 15.5645 4.74208 14.5624C3.925 13.2905 3.925 11.217 4.74208 9.93741C6.62292 6.99283 9.35938 5.297 12.25 5.297C13.9458 5.297 15.6185 5.88283 17.0831 6.98512C17.3375 7.17783 17.3915 7.54012 17.1988 7.7945C17.006 8.04887 16.6438 8.10283 16.3894 7.91012C15.1252 6.95429 13.6915 6.45325 12.25 6.45325C9.76021 6.45325 7.37833 7.94866 5.71333 10.5618C5.13521 11.4637 5.13521 13.0362 5.71333 13.938C6.29146 14.8399 6.95438 15.6185 7.68667 16.2505C7.92563 16.4587 7.95646 16.821 7.74833 17.0676C7.64042 17.1987 7.47854 17.268 7.31667 17.268Z" fill="#292D32"/>
<path d="M12.25 19.203C11.2248 19.203 10.2227 18.9949 9.25917 18.5863C8.96626 18.463 8.82751 18.1238 8.95084 17.8309C9.07417 17.538 9.41334 17.3992 9.70626 17.5226C10.5233 17.8694 11.379 18.0467 12.2423 18.0467C14.7321 18.0467 17.114 16.5513 18.779 13.9382C19.3571 13.0363 19.3571 11.4638 18.779 10.5619C18.54 10.1842 18.2779 9.82194 18.0004 9.48278C17.8 9.23611 17.8385 8.87382 18.0852 8.66569C18.3319 8.46528 18.6942 8.49611 18.9023 8.75049C19.2029 9.12049 19.4958 9.52132 19.7579 9.93757C20.575 11.2094 20.575 13.283 19.7579 14.5626C17.8771 17.5072 15.1406 19.203 12.25 19.203Z" fill="#292D32"/>
<path d="M12.7819 15.5415C12.5121 15.5415 12.2654 15.3488 12.2115 15.0713C12.1498 14.7552 12.3579 14.4546 12.674 14.4006C13.5219 14.2465 14.231 13.5373 14.3852 12.6894C14.4469 12.3734 14.7475 12.1729 15.0635 12.2269C15.3796 12.2886 15.5877 12.5892 15.526 12.9052C15.2794 14.2388 14.2156 15.2948 12.8898 15.5415C12.8513 15.5338 12.8204 15.5415 12.7819 15.5415Z" fill="#292D32"/>
<path d="M4.54167 20.5365C4.39521 20.5365 4.24875 20.4825 4.13313 20.3669C3.90958 20.1433 3.90958 19.7733 4.13313 19.5498L9.89125 13.7917C10.1148 13.5681 10.4848 13.5681 10.7083 13.7917C10.9319 14.0152 10.9319 14.3852 10.7083 14.6088L4.95021 20.3669C4.83458 20.4825 4.68813 20.5365 4.54167 20.5365Z" fill="#292D32"/>
<path d="M14.2002 10.8779C14.0537 10.8779 13.9073 10.8239 13.7917 10.7083C13.5681 10.4848 13.5681 10.1148 13.7917 9.89123L19.5498 4.13311C19.7733 3.90957 20.1433 3.90957 20.3669 4.13311C20.5904 4.35665 20.5904 4.72665 20.3669 4.95019L14.6087 10.7083C14.4931 10.8239 14.3467 10.8779 14.2002 10.8779Z" fill="#292D32"/>
</svg>
