<svg width="88" height="24" viewBox="0 0 88 24" fill="none" xmlns="http://www.w3.org/2000/svg">
<g clip-path="url(#clip0_615_253)">
<path d="M22.501 12.2332C22.501 11.3699 22.4296 10.7399 22.2748 10.0865H12.2153V13.9832H18.12C18.001 14.9515 17.3582 16.4099 15.9296 17.3898L15.9096 17.5203L19.0902 19.935L19.3106 19.9565C21.3343 18.1249 22.501 15.4298 22.501 12.2332Z" fill="#4285F4"/>
<path d="M12.214 22.5C15.1068 22.5 17.5353 21.5666 19.3092 19.9567L15.9282 17.3899C15.0235 18.0083 13.8092 18.4399 12.214 18.4399C9.38069 18.4399 6.97596 16.6083 6.11874 14.0766L5.99309 14.0871L2.68583 16.5954L2.64258 16.7132C4.40446 20.1433 8.0235 22.5 12.214 22.5Z" fill="#34A853"/>
<path d="M6.12046 14.0767C5.89428 13.4234 5.76337 12.7233 5.76337 12C5.76337 11.2767 5.89428 10.5767 6.10856 9.92337L6.10257 9.78423L2.75386 7.2356L2.64429 7.28667C1.91814 8.71002 1.50146 10.3084 1.50146 12C1.50146 13.6917 1.91814 15.29 2.64429 16.7133L6.12046 14.0767Z" fill="#FBBC05"/>
<path d="M12.2141 5.55997C14.2259 5.55997 15.583 6.41163 16.3569 7.12335L19.3807 4.23C17.5236 2.53834 15.1069 1.5 12.2141 1.5C8.02353 1.5 4.40447 3.85665 2.64258 7.28662L6.10686 9.92332C6.97598 7.39166 9.38073 5.55997 12.2141 5.55997Z" fill="#EB4335"/>
</g>
<path d="M41.1534 9.53977C41.0436 9.19508 40.8958 8.88636 40.7102 8.61364C40.5284 8.33712 40.3106 8.10227 40.0568 7.90909C39.803 7.71212 39.5133 7.5625 39.1875 7.46023C38.8655 7.35795 38.5114 7.30682 38.125 7.30682C37.4697 7.30682 36.8788 7.47538 36.3523 7.8125C35.8258 8.14962 35.4091 8.64394 35.1023 9.29545C34.7992 9.94318 34.6477 10.7367 34.6477 11.6761C34.6477 12.6193 34.8011 13.4167 35.108 14.0682C35.4148 14.7197 35.8352 15.214 36.3693 15.5511C36.9034 15.8883 37.5114 16.0568 38.1932 16.0568C38.8258 16.0568 39.3769 15.928 39.8466 15.6705C40.3201 15.4129 40.6856 15.0492 40.9432 14.5795C41.2045 14.1061 41.3352 13.5492 41.3352 12.9091L41.7898 12.9943H38.4602V11.5455H43.0341V12.8693C43.0341 13.8466 42.8258 14.6951 42.4091 15.4148C41.9962 16.1307 41.4242 16.6837 40.6932 17.0739C39.9659 17.464 39.1326 17.6591 38.1932 17.6591C37.1402 17.6591 36.2159 17.4167 35.4205 16.9318C34.6288 16.447 34.0114 15.7595 33.5682 14.8693C33.125 13.9754 32.9034 12.9148 32.9034 11.6875C32.9034 10.7595 33.0322 9.92614 33.2898 9.1875C33.5473 8.44886 33.9091 7.82197 34.375 7.30682C34.8447 6.78788 35.3958 6.39205 36.0284 6.11932C36.6648 5.8428 37.3598 5.70455 38.1136 5.70455C38.7424 5.70455 39.3277 5.79735 39.8693 5.98295C40.4148 6.16856 40.8996 6.43182 41.3239 6.77273C41.7519 7.11364 42.1061 7.51894 42.3864 7.98864C42.6667 8.45455 42.8561 8.97159 42.9545 9.53977H41.1534ZM48.9626 17.6761C48.1444 17.6761 47.4304 17.4886 46.8205 17.1136C46.2107 16.7386 45.7372 16.214 45.4001 15.5398C45.0629 14.8655 44.8944 14.0777 44.8944 13.1761C44.8944 12.2708 45.0629 11.4792 45.4001 10.8011C45.7372 10.1231 46.2107 9.59659 46.8205 9.22159C47.4304 8.84659 48.1444 8.65909 48.9626 8.65909C49.7807 8.65909 50.4948 8.84659 51.1046 9.22159C51.7145 9.59659 52.1879 10.1231 52.5251 10.8011C52.8622 11.4792 53.0307 12.2708 53.0307 13.1761C53.0307 14.0777 52.8622 14.8655 52.5251 15.5398C52.1879 16.214 51.7145 16.7386 51.1046 17.1136C50.4948 17.4886 49.7807 17.6761 48.9626 17.6761ZM48.9682 16.25C49.4985 16.25 49.9379 16.1098 50.2864 15.8295C50.6349 15.5492 50.8925 15.1761 51.0591 14.7102C51.2296 14.2443 51.3148 13.7311 51.3148 13.1705C51.3148 12.6136 51.2296 12.1023 51.0591 11.6364C50.8925 11.1667 50.6349 10.7898 50.2864 10.5057C49.9379 10.2216 49.4985 10.0795 48.9682 10.0795C48.4341 10.0795 47.991 10.2216 47.6387 10.5057C47.2902 10.7898 47.0307 11.1667 46.8603 11.6364C46.6936 12.1023 46.6103 12.6136 46.6103 13.1705C46.6103 13.7311 46.6936 14.2443 46.8603 14.7102C47.0307 15.1761 47.2902 15.5492 47.6387 15.8295C47.991 16.1098 48.4341 16.25 48.9682 16.25ZM58.7632 17.6761C57.945 17.6761 57.231 17.4886 56.6211 17.1136C56.0113 16.7386 55.5378 16.214 55.2007 15.5398C54.8636 14.8655 54.695 14.0777 54.695 13.1761C54.695 12.2708 54.8636 11.4792 55.2007 10.8011C55.5378 10.1231 56.0113 9.59659 56.6211 9.22159C57.231 8.84659 57.945 8.65909 58.7632 8.65909C59.5814 8.65909 60.2954 8.84659 60.9052 9.22159C61.5151 9.59659 61.9886 10.1231 62.3257 10.8011C62.6628 11.4792 62.8314 12.2708 62.8314 13.1761C62.8314 14.0777 62.6628 14.8655 62.3257 15.5398C61.9886 16.214 61.5151 16.7386 60.9052 17.1136C60.2954 17.4886 59.5814 17.6761 58.7632 17.6761ZM58.7689 16.25C59.2992 16.25 59.7386 16.1098 60.087 15.8295C60.4355 15.5492 60.6931 15.1761 60.8598 14.7102C61.0302 14.2443 61.1155 13.7311 61.1155 13.1705C61.1155 12.6136 61.0302 12.1023 60.8598 11.6364C60.6931 11.1667 60.4355 10.7898 60.087 10.5057C59.7386 10.2216 59.2992 10.0795 58.7689 10.0795C58.2348 10.0795 57.7916 10.2216 57.4393 10.5057C57.0908 10.7898 56.8314 11.1667 56.6609 11.6364C56.4942 12.1023 56.4109 12.6136 56.4109 13.1705C56.4109 13.7311 56.4942 14.2443 56.6609 14.7102C56.8314 15.1761 57.0908 15.5492 57.4393 15.8295C57.7916 16.1098 58.2348 16.25 58.7689 16.25ZM68.5468 20.9545C67.8536 20.9545 67.257 20.8636 66.757 20.6818C66.2608 20.5 65.8555 20.2595 65.5411 19.9602C65.2267 19.661 64.9918 19.3333 64.8365 18.9773L66.2968 18.375C66.399 18.5417 66.5354 18.7178 66.7059 18.9034C66.8801 19.0928 67.1149 19.2538 67.4104 19.3864C67.7096 19.5189 68.0941 19.5852 68.5638 19.5852C69.2077 19.5852 69.7399 19.428 70.1604 19.1136C70.5809 18.803 70.7911 18.3068 70.7911 17.625V15.9091H70.6831C70.5809 16.0947 70.4331 16.3011 70.2399 16.5284C70.0505 16.7557 69.7892 16.9527 69.4559 17.1193C69.1225 17.286 68.6888 17.3693 68.1547 17.3693C67.4653 17.3693 66.8441 17.2083 66.2911 16.8864C65.7418 16.5606 65.3062 16.0814 64.9843 15.4489C64.6661 14.8125 64.507 14.0303 64.507 13.1023C64.507 12.1742 64.6642 11.3788 64.9786 10.7159C65.2968 10.053 65.7324 9.54545 66.2854 9.19318C66.8384 8.83712 67.4653 8.65909 68.1661 8.65909C68.7077 8.65909 69.1452 8.75 69.4786 8.93182C69.8119 9.10985 70.0714 9.31818 70.257 9.55682C70.4464 9.79545 70.5922 10.0057 70.6945 10.1875H70.8195V8.77273H72.4843V17.6932C72.4843 18.4432 72.31 19.0587 71.9615 19.5398C71.613 20.0208 71.1415 20.3769 70.5468 20.608C69.9559 20.839 69.2892 20.9545 68.5468 20.9545ZM68.5297 15.9602C69.0184 15.9602 69.4312 15.8466 69.7684 15.6193C70.1093 15.3883 70.3668 15.0587 70.5411 14.6307C70.7191 14.1989 70.8081 13.6818 70.8081 13.0795C70.8081 12.4924 70.721 11.9754 70.5468 11.5284C70.3725 11.0814 70.1168 10.733 69.7797 10.483C69.4426 10.2292 69.0259 10.1023 68.5297 10.1023C68.0184 10.1023 67.5922 10.2348 67.2513 10.5C66.9104 10.7614 66.6528 11.1174 66.4786 11.5682C66.3081 12.0189 66.2229 12.5227 66.2229 13.0795C66.2229 13.6515 66.31 14.1534 66.4843 14.5852C66.6585 15.017 66.9161 15.3542 67.257 15.5966C67.6017 15.839 68.0259 15.9602 68.5297 15.9602ZM76.6215 5.86364V17.5H74.9227V5.86364H76.6215ZM82.8284 17.6761C81.9686 17.6761 81.228 17.4924 80.6068 17.125C79.9894 16.7538 79.5121 16.233 79.175 15.5625C78.8417 14.8883 78.675 14.0985 78.675 13.1932C78.675 12.2992 78.8417 11.5114 79.175 10.8295C79.5121 10.1477 79.9818 9.61553 80.5841 9.23295C81.1902 8.85038 81.8985 8.65909 82.7091 8.65909C83.2015 8.65909 83.6788 8.74053 84.1409 8.90341C84.603 9.06629 85.0178 9.32197 85.3852 9.67045C85.7527 10.0189 86.0424 10.4716 86.2545 11.0284C86.4667 11.5814 86.5727 12.2538 86.5727 13.0455V13.6477H79.6352V12.375H84.908C84.908 11.928 84.817 11.5322 84.6352 11.1875C84.4534 10.839 84.1977 10.5644 83.8682 10.3636C83.5424 10.1629 83.1598 10.0625 82.7205 10.0625C82.2432 10.0625 81.8265 10.1799 81.4705 10.4148C81.1182 10.6458 80.8455 10.9489 80.6523 11.3239C80.4629 11.6951 80.3682 12.0985 80.3682 12.5341V13.5284C80.3682 14.1117 80.4705 14.608 80.675 15.017C80.8833 15.4261 81.1731 15.7386 81.5443 15.9545C81.9155 16.1667 82.3492 16.2727 82.8455 16.2727C83.1674 16.2727 83.461 16.2273 83.7261 16.1364C83.9913 16.0417 84.2205 15.9015 84.4136 15.7159C84.6068 15.5303 84.7545 15.3011 84.8568 15.0284L86.4648 15.3182C86.336 15.7917 86.1049 16.2064 85.7716 16.5625C85.442 16.9148 85.0273 17.1894 84.5273 17.3864C84.0311 17.5795 83.4648 17.6761 82.8284 17.6761Z" fill="black"/>
<defs>
<clipPath id="clip0_615_253">
<rect width="24" height="24" fill="white"/>
</clipPath>
</defs>
</svg>
